# Blender 4.2.1 LTS
# www.blender.org
mtllib beam-cylinder-2-rotated.mesh.mtl
o Cylinder.001
v 1.637591 -0.000000 0.771040
v 0.482791 0.000000 0.000000
v 1.604237 0.338658 0.771041
v 0.471625 0.113367 0.000000
v 1.505454 0.664301 0.771041
v 0.438557 0.222378 0.000000
v 1.345039 0.964415 0.771041
v 0.384857 0.322843 0.000000
v 1.129157 1.227468 0.771041
v 0.312590 0.410901 0.000000
v 0.866105 1.443350 0.771041
v 0.224532 0.483168 0.000000
v 0.565990 1.603764 0.771041
v 0.124067 0.536868 0.000000
v 0.240347 1.702547 0.771041
v 0.015057 0.569936 0.000000
v -0.098311 1.735902 0.771041
v -0.098311 0.581101 0.000000
v -0.436968 1.702547 0.771041
v -0.211678 0.569936 0.000000
v -0.762612 1.603764 0.771041
v -0.320688 0.536868 0.000000
v -1.062726 1.443350 0.771040
v -0.421153 0.483168 0.000000
v -1.325779 1.227468 0.771040
v -0.509211 0.410901 0.000000
v -1.541661 0.964415 0.771040
v -0.581479 0.322843 0.000000
v -1.702075 0.664301 0.771040
v -0.635178 0.222378 0.000000
v -1.800858 0.338658 0.771040
v -0.668246 0.113367 0.000000
v -1.834213 -0.000000 0.771040
v -0.679412 0.000000 0.000000
v -1.800858 -0.338658 0.771040
v -0.668246 -0.113367 0.000000
v -1.702075 -0.664301 0.771040
v -0.635178 -0.222378 0.000000
v -1.541661 -0.964416 0.771040
v -0.581479 -0.322842 0.000000
v -1.325779 -1.227468 0.771040
v -0.509211 -0.410901 0.000000
v -1.062726 -1.443350 0.771040
v -0.421153 -0.483168 0.000000
v -0.762612 -1.603765 0.771040
v -0.320688 -0.536867 0.000000
v -0.436968 -1.702547 0.771040
v -0.211678 -0.569936 0.000000
v -0.098311 -1.735902 0.771040
v -0.098311 -0.581101 0.000000
v 0.240347 -1.702547 0.771040
v 0.015057 -0.569936 0.000000
v 0.565990 -1.603765 0.771040
v 0.124067 -0.536867 0.000000
v 0.866105 -1.443350 0.771040
v 0.224532 -0.483168 0.000000
v 1.129157 -1.227468 0.771040
v 0.312590 -0.410901 0.000000
v 1.345039 -0.964416 0.771040
v 0.384857 -0.322842 0.000000
v 1.505454 -0.664301 0.771040
v 0.438557 -0.222378 0.000000
v 1.604237 -0.338658 0.771040
v 0.471625 -0.113367 0.000000
v 1.403874 -0.000000 0.578280
v 1.170156 -0.000000 0.385520
v 0.936438 0.000000 0.192760
v 0.916555 0.201869 0.192760
v 1.145782 0.247466 0.385520
v 1.375010 0.293062 0.578280
v 0.857672 0.395981 0.192760
v 1.073599 0.485421 0.385520
v 1.289526 0.574861 0.578280
v 0.762051 0.574875 0.192760
v 0.956380 0.704722 0.385520
v 1.150710 0.834569 0.578280
v 0.633367 0.731678 0.192760
v 0.798630 0.896941 0.385520
v 0.963894 1.062205 0.578280
v 0.476565 0.860362 0.192760
v 0.606411 1.054691 0.385520
v 0.736258 1.249020 0.578280
v 0.297670 0.955983 0.192760
v 0.387110 1.171910 0.385520
v 0.476550 1.387837 0.578280
v 0.103559 1.014866 0.192760
v 0.149155 1.244093 0.385520
v 0.194751 1.473320 0.578280
v -0.098311 1.034748 0.192760
v -0.098311 1.268466 0.385520
v -0.098311 1.502184 0.578280
v -0.300180 1.014866 0.192760
v -0.345776 1.244093 0.385520
v -0.391372 1.473320 0.578280
v -0.494292 0.955983 0.192760
v -0.583732 1.171910 0.385520
v -0.673172 1.387837 0.578280
v -0.673186 0.860362 0.192760
v -0.803033 1.054691 0.385520
v -0.932880 1.249020 0.578280
v -0.829988 0.731678 0.192760
v -0.995252 0.896941 0.385520
v -1.160515 1.062205 0.578280
v -0.958672 0.574875 0.192760
v -1.153002 0.704722 0.385520
v -1.347331 0.834569 0.578280
v -1.054294 0.395981 0.192760
v -1.270221 0.485421 0.385520
v -1.486148 0.574861 0.578280
v -1.113177 0.201869 0.192760
v -1.342404 0.247466 0.385520
v -1.571631 0.293062 0.578280
v -1.133059 0.000000 0.192760
v -1.366777 -0.000000 0.385520
v -1.600495 -0.000000 0.578280
v -1.113177 -0.201869 0.192760
v -1.342404 -0.247466 0.385520
v -1.571631 -0.293062 0.578280
v -1.054294 -0.395981 0.192760
v -1.270221 -0.485421 0.385520
v -1.486148 -0.574861 0.578280
v -0.958672 -0.574875 0.192760
v -1.153002 -0.704722 0.385520
v -1.347331 -0.834569 0.578280
v -0.829988 -0.731678 0.192760
v -0.995252 -0.896941 0.385520
v -1.160515 -1.062205 0.578280
v -0.673186 -0.860362 0.192760
v -0.803033 -1.054691 0.385520
v -0.932880 -1.249021 0.578280
v -0.494292 -0.955983 0.192760
v -0.583732 -1.171910 0.385520
v -0.673172 -1.387837 0.578280
v -0.300180 -1.014866 0.192760
v -0.345776 -1.244093 0.385520
v -0.391372 -1.473320 0.578280
v -0.098311 -1.034748 0.192760
v -0.098311 -1.268466 0.385520
v -0.098311 -1.502184 0.578280
v 0.103559 -1.014866 0.192760
v 0.149155 -1.244093 0.385520
v 0.194751 -1.473320 0.578280
v 0.297670 -0.955983 0.192760
v 0.387110 -1.171910 0.385520
v 0.476550 -1.387837 0.578280
v 0.476565 -0.860362 0.192760
v 0.606411 -1.054691 0.385520
v 0.736258 -1.249021 0.578280
v 0.633367 -0.731678 0.192760
v 0.798630 -0.896941 0.385520
v 0.963894 -1.062205 0.578280
v 0.762051 -0.574875 0.192760
v 0.956380 -0.704722 0.385520
v 1.150710 -0.834569 0.578280
v 0.857672 -0.395981 0.192760
v 1.073599 -0.485421 0.385520
v 1.289526 -0.574861 0.578280
v 0.916555 -0.201869 0.192760
v 1.145782 -0.247466 0.385520
v 1.375010 -0.293062 0.578280
vn 0.6363 -0.0000 -0.7715
vn 0.3911 -0.0000 -0.9204
vn 0.6240 0.1241 -0.7715
vn 0.3836 0.0763 -0.9204
vn 0.5878 0.2435 -0.7715
vn 0.3613 0.1497 -0.9204
vn 0.5290 0.3535 -0.7715
vn 0.3252 0.2173 -0.9204
vn 0.4499 0.4499 -0.7715
vn 0.2765 0.2765 -0.9204
vn 0.3535 0.5290 -0.7715
vn 0.2173 0.3252 -0.9204
vn 0.2435 0.5878 -0.7715
vn 0.1497 0.3613 -0.9204
vn 0.1241 0.6240 -0.7715
vn 0.0763 0.3836 -0.9204
vn -0.0000 0.6363 -0.7715
vn -0.0000 0.3911 -0.9204
vn -0.1241 0.6240 -0.7715
vn -0.0763 0.3836 -0.9204
vn -0.2435 0.5878 -0.7715
vn -0.1497 0.3613 -0.9204
vn -0.3535 0.5290 -0.7715
vn -0.2173 0.3252 -0.9204
vn -0.4499 0.4499 -0.7715
vn -0.2765 0.2765 -0.9204
vn -0.5290 0.3535 -0.7715
vn -0.3252 0.2173 -0.9204
vn -0.5878 0.2435 -0.7715
vn -0.3613 0.1497 -0.9204
vn -0.6240 0.1241 -0.7715
vn -0.3836 0.0763 -0.9204
vn -0.6363 -0.0000 -0.7715
vn -0.3911 -0.0000 -0.9204
vn -0.6240 -0.1241 -0.7715
vn -0.3836 -0.0763 -0.9204
vn -0.5878 -0.2435 -0.7715
vn -0.3613 -0.1497 -0.9204
vn -0.5290 -0.3535 -0.7715
vn -0.3252 -0.2173 -0.9204
vn -0.4499 -0.4499 -0.7715
vn -0.2765 -0.2765 -0.9204
vn -0.3535 -0.5290 -0.7715
vn -0.2173 -0.3252 -0.9204
vn -0.2435 -0.5878 -0.7715
vn -0.1497 -0.3613 -0.9204
vn -0.1241 -0.6240 -0.7715
vn -0.0763 -0.3836 -0.9204
vn -0.0000 -0.6363 -0.7715
vn -0.0000 -0.3911 -0.9204
vn 0.1241 -0.6240 -0.7715
vn 0.0763 -0.3836 -0.9204
vn 0.2435 -0.5878 -0.7715
vn 0.1497 -0.3613 -0.9204
vn 0.3535 -0.5290 -0.7715
vn 0.2173 -0.3252 -0.9204
vn 0.4499 -0.4499 -0.7715
vn 0.2765 -0.2765 -0.9204
vn 0.5290 -0.3535 -0.7715
vn 0.3252 -0.2173 -0.9204
vn 0.5878 -0.2435 -0.7715
vn 0.3613 -0.1497 -0.9204
vn 0.6240 -0.1241 -0.7715
vn 0.3836 -0.0763 -0.9204
vn 0.5255 -0.0000 -0.8508
vn 0.5154 0.1025 -0.8508
vn 0.4855 0.2011 -0.8508
vn 0.4370 0.2920 -0.8508
vn 0.3716 0.3716 -0.8508
vn 0.2920 0.4370 -0.8508
vn 0.2011 0.4855 -0.8508
vn 0.1025 0.5154 -0.8508
vn -0.0000 0.5255 -0.8508
vn -0.1025 0.5154 -0.8508
vn -0.2011 0.4855 -0.8508
vn -0.2920 0.4370 -0.8508
vn -0.3716 0.3716 -0.8508
vn -0.4370 0.2920 -0.8508
vn -0.4855 0.2011 -0.8508
vn -0.5154 0.1025 -0.8508
vn -0.5255 -0.0000 -0.8508
vn -0.5154 -0.1025 -0.8508
vn -0.4855 -0.2011 -0.8508
vn -0.4370 -0.2920 -0.8508
vn -0.3716 -0.3716 -0.8508
vn -0.2920 -0.4370 -0.8508
vn -0.2011 -0.4855 -0.8508
vn -0.1025 -0.5154 -0.8508
vn -0.0000 -0.5255 -0.8508
vn 0.1025 -0.5154 -0.8508
vn 0.2011 -0.4855 -0.8508
vn 0.2920 -0.4370 -0.8508
vn 0.3716 -0.3716 -0.8508
vn 0.4370 -0.2920 -0.8508
vn 0.4855 -0.2011 -0.8508
vn 0.5154 -0.1025 -0.8508
vt 1.000000 0.750000
vt 1.000000 1.000000
vt 0.968750 1.000000
vt 0.968750 0.750000
vt 0.937500 1.000000
vt 0.937500 0.750000
vt 0.906250 1.000000
vt 0.906250 0.750000
vt 0.875000 1.000000
vt 0.875000 0.750000
vt 0.843750 1.000000
vt 0.843750 0.750000
vt 0.812500 1.000000
vt 0.812500 0.750000
vt 0.781250 1.000000
vt 0.781250 0.750000
vt 0.750000 1.000000
vt 0.750000 0.750000
vt 0.718750 1.000000
vt 0.718750 0.750000
vt 0.687500 1.000000
vt 0.687500 0.750000
vt 0.656250 1.000000
vt 0.656250 0.750000
vt 0.625000 1.000000
vt 0.625000 0.750000
vt 0.593750 1.000000
vt 0.593750 0.750000
vt 0.562500 1.000000
vt 0.562500 0.750000
vt 0.531250 1.000000
vt 0.531250 0.750000
vt 0.500000 1.000000
vt 0.500000 0.750000
vt 0.468750 1.000000
vt 0.468750 0.750000
vt 0.437500 1.000000
vt 0.437500 0.750000
vt 0.406250 1.000000
vt 0.406250 0.750000
vt 0.375000 1.000000
vt 0.375000 0.750000
vt 0.343750 1.000000
vt 0.343750 0.750000
vt 0.312500 1.000000
vt 0.312500 0.750000
vt 0.281250 1.000000
vt 0.281250 0.750000
vt 0.250000 1.000000
vt 0.250000 0.750000
vt 0.218750 1.000000
vt 0.218750 0.750000
vt 0.187500 1.000000
vt 0.187500 0.750000
vt 0.156250 1.000000
vt 0.156250 0.750000
vt 0.125000 1.000000
vt 0.125000 0.750000
vt 0.093750 1.000000
vt 0.093750 0.750000
vt 0.062500 1.000000
vt 0.062500 0.750000
vt 0.031250 1.000000
vt 0.031250 0.750000
vt 0.000000 1.000000
vt 0.000000 0.750000
vt 0.031250 0.000000
vt 0.031250 0.250000
vt 0.000000 0.250000
vt 0.000000 0.000000
vt 0.031250 0.500000
vt 0.000000 0.500000
vt 0.062500 0.000000
vt 0.062500 0.250000
vt 0.062500 0.500000
vt 0.093750 0.000000
vt 0.093750 0.250000
vt 0.093750 0.500000
vt 0.125000 0.000000
vt 0.125000 0.250000
vt 0.125000 0.500000
vt 0.156250 0.000000
vt 0.156250 0.250000
vt 0.156250 0.500000
vt 0.187500 0.000000
vt 0.187500 0.250000
vt 0.187500 0.500000
vt 0.218750 0.000000
vt 0.218750 0.250000
vt 0.218750 0.500000
vt 0.250000 0.000000
vt 0.250000 0.250000
vt 0.250000 0.500000
vt 0.281250 0.000000
vt 0.281250 0.250000
vt 0.281250 0.500000
vt 0.312500 0.000000
vt 0.312500 0.250000
vt 0.312500 0.500000
vt 0.343750 0.000000
vt 0.343750 0.250000
vt 0.343750 0.500000
vt 0.375000 0.000000
vt 0.375000 0.250000
vt 0.375000 0.500000
vt 0.406250 0.000000
vt 0.406250 0.250000
vt 0.406250 0.500000
vt 0.437500 0.000000
vt 0.437500 0.250000
vt 0.437500 0.500000
vt 0.468750 0.000000
vt 0.468750 0.250000
vt 0.468750 0.500000
vt 0.500000 0.000000
vt 0.500000 0.250000
vt 0.500000 0.500000
vt 0.531250 0.000000
vt 0.531250 0.250000
vt 0.531250 0.500000
vt 0.562500 0.000000
vt 0.562500 0.250000
vt 0.562500 0.500000
vt 0.593750 0.000000
vt 0.593750 0.250000
vt 0.593750 0.500000
vt 0.625000 0.000000
vt 0.625000 0.250000
vt 0.625000 0.500000
vt 0.656250 0.000000
vt 0.656250 0.250000
vt 0.656250 0.500000
vt 0.687500 0.000000
vt 0.687500 0.250000
vt 0.687500 0.500000
vt 0.718750 0.000000
vt 0.718750 0.250000
vt 0.718750 0.500000
vt 0.750000 0.000000
vt 0.750000 0.250000
vt 0.750000 0.500000
vt 0.781250 0.000000
vt 0.781250 0.250000
vt 0.781250 0.500000
vt 0.812500 0.000000
vt 0.812500 0.250000
vt 0.812500 0.500000
vt 0.843750 0.000000
vt 0.843750 0.250000
vt 0.843750 0.500000
vt 0.875000 0.000000
vt 0.875000 0.250000
vt 0.875000 0.500000
vt 0.906250 0.000000
vt 0.906250 0.250000
vt 0.906250 0.500000
vt 0.937500 0.000000
vt 0.937500 0.250000
vt 0.937500 0.500000
vt 0.968750 0.000000
vt 0.968750 0.250000
vt 0.968750 0.500000
vt 1.000000 0.000000
vt 1.000000 0.250000
vt 1.000000 0.500000
s 1
f 67/1/65 2/2/2 4/3/4 68/4/66
f 68/4/66 4/3/4 6/5/6 71/6/67
f 71/6/67 6/5/6 8/7/8 74/8/68
f 74/8/68 8/7/8 10/9/10 77/10/69
f 77/10/69 10/9/10 12/11/12 80/12/70
f 80/12/70 12/11/12 14/13/14 83/14/71
f 83/14/71 14/13/14 16/15/16 86/16/72
f 86/16/72 16/15/16 18/17/18 89/18/73
f 89/18/73 18/17/18 20/19/20 92/20/74
f 92/20/74 20/19/20 22/21/22 95/22/75
f 95/22/75 22/21/22 24/23/24 98/24/76
f 98/24/76 24/23/24 26/25/26 101/26/77
f 101/26/77 26/25/26 28/27/28 104/28/78
f 104/28/78 28/27/28 30/29/30 107/30/79
f 107/30/79 30/29/30 32/31/32 110/32/80
f 110/32/80 32/31/32 34/33/34 113/34/81
f 113/34/81 34/33/34 36/35/36 116/36/82
f 116/36/82 36/35/36 38/37/38 119/38/83
f 119/38/83 38/37/38 40/39/40 122/40/84
f 122/40/84 40/39/40 42/41/42 125/42/85
f 125/42/85 42/41/42 44/43/44 128/44/86
f 128/44/86 44/43/44 46/45/46 131/46/87
f 131/46/87 46/45/46 48/47/48 134/48/88
f 134/48/88 48/47/48 50/49/50 137/50/89
f 137/50/89 50/49/50 52/51/52 140/52/90
f 140/52/90 52/51/52 54/53/54 143/54/91
f 143/54/91 54/53/54 56/55/56 146/56/92
f 146/56/92 56/55/56 58/57/58 149/58/93
f 149/58/93 58/57/58 60/59/60 152/60/94
f 152/60/94 60/59/60 62/61/62 155/62/95
f 155/62/95 62/61/62 64/63/64 158/64/96
f 158/64/96 64/63/64 2/65/2 67/66/65
f 63/67/63 160/68/63 65/69/1 1/70/1
f 160/68/63 159/71/63 66/72/1 65/69/1
f 159/71/63 158/64/96 67/66/65 66/72/1
f 61/73/61 157/74/61 160/68/63 63/67/63
f 157/74/61 156/75/61 159/71/63 160/68/63
f 156/75/61 155/62/95 158/64/96 159/71/63
f 59/76/59 154/77/59 157/74/61 61/73/61
f 154/77/59 153/78/59 156/75/61 157/74/61
f 153/78/59 152/60/94 155/62/95 156/75/61
f 57/79/57 151/80/57 154/77/59 59/76/59
f 151/80/57 150/81/57 153/78/59 154/77/59
f 150/81/57 149/58/93 152/60/94 153/78/59
f 55/82/55 148/83/55 151/80/57 57/79/57
f 148/83/55 147/84/55 150/81/57 151/80/57
f 147/84/55 146/56/92 149/58/93 150/81/57
f 53/85/53 145/86/53 148/83/55 55/82/55
f 145/86/53 144/87/53 147/84/55 148/83/55
f 144/87/53 143/54/91 146/56/92 147/84/55
f 51/88/51 142/89/51 145/86/53 53/85/53
f 142/89/51 141/90/51 144/87/53 145/86/53
f 141/90/51 140/52/90 143/54/91 144/87/53
f 49/91/49 139/92/49 142/89/51 51/88/51
f 139/92/49 138/93/49 141/90/51 142/89/51
f 138/93/49 137/50/89 140/52/90 141/90/51
f 47/94/47 136/95/47 139/92/49 49/91/49
f 136/95/47 135/96/47 138/93/49 139/92/49
f 135/96/47 134/48/88 137/50/89 138/93/49
f 45/97/45 133/98/45 136/95/47 47/94/47
f 133/98/45 132/99/45 135/96/47 136/95/47
f 132/99/45 131/46/87 134/48/88 135/96/47
f 43/100/43 130/101/43 133/98/45 45/97/45
f 130/101/43 129/102/43 132/99/45 133/98/45
f 129/102/43 128/44/86 131/46/87 132/99/45
f 41/103/41 127/104/41 130/101/43 43/100/43
f 127/104/41 126/105/41 129/102/43 130/101/43
f 126/105/41 125/42/85 128/44/86 129/102/43
f 39/106/39 124/107/39 127/104/41 41/103/41
f 124/107/39 123/108/39 126/105/41 127/104/41
f 123/108/39 122/40/84 125/42/85 126/105/41
f 37/109/37 121/110/37 124/107/39 39/106/39
f 121/110/37 120/111/37 123/108/39 124/107/39
f 120/111/37 119/38/83 122/40/84 123/108/39
f 35/112/35 118/113/35 121/110/37 37/109/37
f 118/113/35 117/114/35 120/111/37 121/110/37
f 117/114/35 116/36/82 119/38/83 120/111/37
f 33/115/33 115/116/33 118/113/35 35/112/35
f 115/116/33 114/117/33 117/114/35 118/113/35
f 114/117/33 113/34/81 116/36/82 117/114/35
f 31/118/31 112/119/31 115/116/33 33/115/33
f 112/119/31 111/120/31 114/117/33 115/116/33
f 111/120/31 110/32/80 113/34/81 114/117/33
f 29/121/29 109/122/29 112/119/31 31/118/31
f 109/122/29 108/123/29 111/120/31 112/119/31
f 108/123/29 107/30/79 110/32/80 111/120/31
f 27/124/27 106/125/27 109/122/29 29/121/29
f 106/125/27 105/126/27 108/123/29 109/122/29
f 105/126/27 104/28/78 107/30/79 108/123/29
f 25/127/25 103/128/25 106/125/27 27/124/27
f 103/128/25 102/129/25 105/126/27 106/125/27
f 102/129/25 101/26/77 104/28/78 105/126/27
f 23/130/23 100/131/23 103/128/25 25/127/25
f 100/131/23 99/132/23 102/129/25 103/128/25
f 99/132/23 98/24/76 101/26/77 102/129/25
f 21/133/21 97/134/21 100/131/23 23/130/23
f 97/134/21 96/135/21 99/132/23 100/131/23
f 96/135/21 95/22/75 98/24/76 99/132/23
f 19/136/19 94/137/19 97/134/21 21/133/21
f 94/137/19 93/138/19 96/135/21 97/134/21
f 93/138/19 92/20/74 95/22/75 96/135/21
f 17/139/17 91/140/17 94/137/19 19/136/19
f 91/140/17 90/141/17 93/138/19 94/137/19
f 90/141/17 89/18/73 92/20/74 93/138/19
f 15/142/15 88/143/15 91/140/17 17/139/17
f 88/143/15 87/144/15 90/141/17 91/140/17
f 87/144/15 86/16/72 89/18/73 90/141/17
f 13/145/13 85/146/13 88/143/15 15/142/15
f 85/146/13 84/147/13 87/144/15 88/143/15
f 84/147/13 83/14/71 86/16/72 87/144/15
f 11/148/11 82/149/11 85/146/13 13/145/13
f 82/149/11 81/150/11 84/147/13 85/146/13
f 81/150/11 80/12/70 83/14/71 84/147/13
f 9/151/9 79/152/9 82/149/11 11/148/11
f 79/152/9 78/153/9 81/150/11 82/149/11
f 78/153/9 77/10/69 80/12/70 81/150/11
f 7/154/7 76/155/7 79/152/9 9/151/9
f 76/155/7 75/156/7 78/153/9 79/152/9
f 75/156/7 74/8/68 77/10/69 78/153/9
f 5/157/5 73/158/5 76/155/7 7/154/7
f 73/158/5 72/159/5 75/156/7 76/155/7
f 72/159/5 71/6/67 74/8/68 75/156/7
f 3/160/3 70/161/3 73/158/5 5/157/5
f 70/161/3 69/162/3 72/159/5 73/158/5
f 69/162/3 68/4/66 71/6/67 72/159/5
f 1/163/1 65/164/1 70/161/3 3/160/3
f 65/164/1 66/165/1 69/162/3 70/161/3
f 66/165/1 67/1/65 68/4/66 69/162/3
