# Blender 4.4.1
# www.blender.org
mtllib ramp1.mtl
o Plane
v 8.200000 6.772667 0.814624
v 8.200000 -0.006625 -6.010498
v -8.199999 6.772670 0.814626
v -8.199999 -0.006625 -6.010497
v 8.200000 6.447938 0.825547
v 8.200000 6.124951 0.820330
v 8.200000 5.804327 0.799075
v 8.200000 5.486675 0.761908
v 8.200000 5.172595 0.708966
v 8.200000 4.862687 0.640419
v 8.200000 4.557540 0.556447
v 8.200000 4.257741 0.457255
v 8.200000 3.963867 0.343065
v 8.200000 3.676486 0.214122
v 8.200000 3.396157 0.070688
v 8.200000 3.123432 -0.086957
v 8.200000 2.858854 -0.258513
v 8.200000 2.602951 -0.443660
v 8.200000 2.356245 -0.642063
v 8.200000 2.119242 -0.853369
v 8.200000 1.892438 -1.077206
v 8.200000 1.676317 -1.313186
v 8.200000 1.471349 -1.560904
v 8.200000 1.277988 -1.819942
v 8.200000 1.096677 -2.089863
v 8.200000 0.927843 -2.370215
v 8.200000 0.771897 -2.660533
v 8.200000 0.629235 -2.960338
v 8.200000 0.500236 -3.269136
v 8.200000 0.385264 -3.586421
v 8.200000 0.284664 -3.911673
v 8.200000 0.198764 -4.244362
v 8.200000 0.127876 -4.583944
v 8.200000 0.072291 -4.929867
v 8.200000 0.036344 -5.284487
v 8.200000 0.014859 -5.647488
v -8.199999 0.014859 -5.647486
v -8.199999 0.036344 -5.284485
v -8.199999 0.072291 -4.929865
v -8.199999 0.127876 -4.583943
v -8.199999 0.198765 -4.244360
v -8.199999 0.284664 -3.911671
v -8.199999 0.385264 -3.586419
v -8.199999 0.500237 -3.269135
v -8.199999 0.629235 -2.960337
v -8.199999 0.771897 -2.660532
v -8.199999 0.927844 -2.370214
v -8.199999 1.096678 -2.089861
v -8.199999 1.277989 -1.819941
v -8.199999 1.471349 -1.560903
v -8.199999 1.676318 -1.313185
v -8.199999 1.892439 -1.077205
v -8.199999 2.119242 -0.853368
v -8.199999 2.356245 -0.642062
v -8.199999 2.602952 -0.443659
v -8.199999 2.858855 -0.258512
v -8.199999 3.123433 -0.086957
v -8.199999 3.396158 0.070688
v -8.199999 3.676486 0.214122
v -8.199999 3.963868 0.343065
v -8.199999 4.257742 0.457254
v -8.199999 4.557541 0.556446
v -8.199999 4.862688 0.640419
v -8.199999 5.172596 0.708967
v -8.199999 5.486676 0.761907
v -8.199999 5.804328 0.799076
v -8.199999 6.124952 0.820330
v -8.199999 6.447939 0.825546
v 8.200000 2.478416 -0.541226
v -8.199999 2.478417 -0.541226
v 8.200000 2.004534 -0.963745
v -8.199999 2.004535 -0.963744
vn -0.0000 -0.0336 -0.9994
vn -0.0000 0.9983 -0.0591
vn -0.0000 -0.0087 -1.0000
vn -0.0000 0.0412 -0.9992
vn -0.0000 0.0912 -0.9958
vn -0.0000 0.1413 -0.9900
vn -0.0000 0.1912 -0.9816
vn -0.0000 0.2407 -0.9706
vn -0.0000 0.2898 -0.9571
vn -0.0000 0.3383 -0.9411
vn -0.0000 0.3859 -0.9225
vn -0.0000 0.4326 -0.9016
vn -0.0000 0.4781 -0.8783
vn -0.0000 0.5224 -0.8527
vn -0.0000 0.5653 -0.8249
vn -0.0000 0.6016 -0.7988
vn -0.0000 0.6511 -0.7590
vn -0.0000 0.6795 -0.7336
vn -0.0000 0.7245 -0.6892
vn -0.0000 0.7542 -0.6567
vn -0.0000 0.7862 -0.6180
vn -0.0000 0.8160 -0.5781
vn -0.0000 0.8436 -0.5369
vn -0.0000 0.8691 -0.4947
vn -0.0000 0.8922 -0.4516
vn -0.0000 0.9131 -0.4077
vn -0.0000 0.9317 -0.3632
vn -0.0000 0.9480 -0.3182
vn -0.0000 0.9621 -0.2728
vn -0.0000 0.9738 -0.2272
vn -0.0000 0.9834 -0.1815
vn -0.0000 0.9915 -0.1298
vn -0.0000 0.9968 -0.0800
vn -0.0000 0.6267 -0.7793
vn -0.0000 0.7024 -0.7118
vt 0.969696 0.000000
vt 1.000000 0.000000
vt 1.000000 1.000000
vt 0.969696 1.000000
vt 0.000000 0.000000
vt 0.030302 0.000000
vt 0.030302 1.000000
vt 0.000000 1.000000
vt 0.060605 0.000000
vt 0.060605 1.000000
vt 0.090908 0.000000
vt 0.090908 1.000000
vt 0.121211 0.000000
vt 0.121211 1.000000
vt 0.151514 0.000000
vt 0.151514 1.000000
vt 0.181817 0.000000
vt 0.181817 1.000000
vt 0.212120 0.000000
vt 0.212120 1.000000
vt 0.242423 0.000000
vt 0.242423 1.000000
vt 0.272726 0.000000
vt 0.272726 1.000000
vt 0.303030 0.000000
vt 0.303030 1.000000
vt 0.333332 0.000000
vt 0.333333 1.000000
vt 0.363636 0.000000
vt 0.363636 1.000000
vt 0.393939 0.000000
vt 0.393939 1.000000
vt 0.424242 0.000000
vt 0.424242 1.000000
vt 0.439393 0.000000
vt 0.454545 0.000000
vt 0.454545 1.000000
vt 0.439393 1.000000
vt 0.484848 0.000000
vt 0.484848 1.000000
vt 0.499999 0.000000
vt 0.515151 0.000000
vt 0.515151 1.000000
vt 0.499999 1.000000
vt 0.545454 0.000000
vt 0.545454 1.000000
vt 0.575757 0.000000
vt 0.575757 1.000000
vt 0.606060 0.000000
vt 0.606060 1.000000
vt 0.636363 0.000000
vt 0.636363 1.000000
vt 0.666666 0.000000
vt 0.666666 1.000000
vt 0.696969 0.000000
vt 0.696969 1.000000
vt 0.727272 0.000000
vt 0.727272 1.000000
vt 0.757575 0.000000
vt 0.757575 1.000000
vt 0.787878 0.000000
vt 0.787878 1.000000
vt 0.818181 0.000000
vt 0.818181 1.000000
vt 0.848484 0.000000
vt 0.848484 1.000000
vt 0.878787 0.000000
vt 0.878787 1.000000
vt 0.909090 0.000000
vt 0.909090 1.000000
vt 0.939393 0.000000
vt 0.939393 1.000000
s 1
f 36/1/2 2/2/2 4/3/2 37/4/2
f 1/5/1 5/6/3 68/7/3 3/8/1
f 5/6/3 6/9/4 67/10/4 68/7/3
f 6/9/4 7/11/5 66/12/5 67/10/4
f 7/11/5 8/13/6 65/14/6 66/12/5
f 8/13/6 9/15/7 64/16/7 65/14/6
f 9/15/7 10/17/8 63/18/8 64/16/7
f 10/17/8 11/19/9 62/20/9 63/18/8
f 11/19/9 12/21/10 61/22/10 62/20/9
f 12/21/10 13/23/11 60/24/11 61/22/10
f 13/23/11 14/25/12 59/26/12 60/24/11
f 14/25/12 15/27/13 58/28/13 59/26/12
f 15/27/13 16/29/14 57/30/14 58/28/13
f 16/29/14 17/31/15 56/32/15 57/30/14
f 17/31/15 18/33/16 55/34/16 56/32/15
f 69/35/34 19/36/17 54/37/17 70/38/34
f 19/36/17 20/39/18 53/40/18 54/37/17
f 71/41/35 21/42/19 52/43/19 72/44/35
f 21/42/19 22/45/20 51/46/20 52/43/19
f 22/45/20 23/47/21 50/48/21 51/46/20
f 23/47/21 24/49/22 49/50/22 50/48/21
f 24/49/22 25/51/23 48/52/23 49/50/22
f 25/51/23 26/53/24 47/54/24 48/52/23
f 26/53/24 27/55/25 46/56/25 47/54/24
f 27/55/25 28/57/26 45/58/26 46/56/25
f 28/57/26 29/59/27 44/60/27 45/58/26
f 29/59/27 30/61/28 43/62/28 44/60/27
f 30/61/28 31/63/29 42/64/29 43/62/28
f 31/63/29 32/65/30 41/66/30 42/64/29
f 32/65/30 33/67/31 40/68/31 41/66/30
f 33/67/31 34/69/32 39/70/32 40/68/31
f 34/69/32 35/71/33 38/72/33 39/70/32
f 35/71/33 36/1/2 37/4/2 38/72/33
f 18/33/16 69/35/34 70/38/34 55/34/16
f 20/39/18 71/41/35 72/44/35 53/40/18
